<?xml version="1.0" encoding="iso-8859-1"?>
<!-- Generator: Adobe Illustrator 16.0.0, SVG Export Plug-In . SVG Version: 6.00 Build 0)  -->
<!DOCTYPE svg PUBLIC "-//W3C//DTD SVG 1.1//EN" "http://www.w3.org/Graphics/SVG/1.1/DTD/svg11.dtd">
<svg version="1.1" id="Capa_1" xmlns="http://www.w3.org/2000/svg" xmlns:xlink="http://www.w3.org/1999/xlink" x="0px" y="0px"
	 width="83.755px" height="83.755px" viewBox="0 0 83.755 83.755" style="enable-background:new 0 0 83.755 83.755;"
	 xml:space="preserve">
<g>
	<path style="fill:#010002;" d="M39.119,8.393c0.663,4.088-2.094,7.938-6.172,8.611c-4.088,0.668-7.954-2.1-8.617-6.177
		c-0.673-4.093,2.089-7.948,6.183-8.616C34.591,1.537,38.457,4.305,39.119,8.393z M36.781,38.103l6.628,10.595
		c0.938,1.485,2.895,1.973,4.409,1.082c1.522-0.901,2.051-2.838,1.207-4.381l-1.681-3.045c-1.465-2.602-2.892-5.217-4.345-7.824
		l-2.959-5.367c-0.334-0.622-0.673-1.315-1.028-2.053c-1.817-3.821-4.655-9.725-10.89-9.184c-5.326,0.461-10.734,2.996-16.057,7.514
		C5.751,30.418,1.35,37.637,1.177,37.947c-0.207,0.323-0.404,0.642-0.562,0.945c-0.013,0.01-0.023,0.021-0.034,0.031v0.005
		c-0.588,1.113-0.88,2.133-0.143,3.425c0.578,1.021,1.665,1.654,2.838,1.654c1.419,0,2.141-0.668,2.845-1.685l0,0
		c0.01-0.01,0.01-0.021,0.01-0.031c0.197-0.292,0.394-0.606,0.606-0.94c0.042-0.062,3.739-5.991,9.456-10.869
		c1.758-1.38,3.436-2.333,5.02-2.858l-1.274,15.431c-0.127,1.524-0.608,4.155-1.028,5.631l-2.869,10.051
		c-0.37,1.269-1.447,3.376-2.291,4.406l-7.747,9.605c-0.987,1.217-2.1,2.6-1.181,4.516c0.541,1.129,1.686,1.854,2.941,1.854
		c1.502,0,2.312-0.869,3.325-1.968l7.847-8.461c1.401-1.512,3.221-4.132,4.122-5.991l3.891-7.917l14.395,24.187
		c0.707,1.196,1.598,2.678,3.553,2.678l0,0c1.121,0,2.144-0.57,2.747-1.502c1.022-1.59,0.339-3.055-0.26-4.35l-11.637-25.29
		c-0.453-0.994-0.702-3.014-0.505-4.101L36.781,38.103z M48.974,64.428h17.439v5.184l17.342-10.009l-17.342-10.01v5.178H48.974
		V64.428z"/>
</g>
<g>
</g>
<g>
</g>
<g>
</g>
<g>
</g>
<g>
</g>
<g>
</g>
<g>
</g>
<g>
</g>
<g>
</g>
<g>
</g>
<g>
</g>
<g>
</g>
<g>
</g>
<g>
</g>
<g>
</g>
</svg>
